<svg width="1302.3875px" height="210.79999999999998px" xmlns="http://www.w3.org/2000/svg" viewBox="-401.19375 -30.39999999999999 1302.3875 210.79999999999998" preserveAspectRatio="xMidYMid"><defs><filter id="editing-vr"><feFlood flood-color="undefined" flood-opacity="0.7" result="c1"></feFlood><feFlood flood-color="undefined" flood-opacity="0.7" result="c3"></feFlood><feComposite operator="in" in="c1" in2="SourceAlpha" result="text-c1"></feComposite><feComposite operator="in" in="c3" in2="SourceAlpha" result="text-c3"></feComposite><feOffset in="text-c1" dx="-5" dy="1" result="text1"></feOffset><feOffset in="text-c3" dx="5" dy="-1" result="text3"></feOffset><feBlend in="SourceGraphic" in2="text1" mode="multiply" result="text4"></feBlend><feBlend in="text4" in2="text3" mode="multiply"></feBlend></filter></defs><g filter="url(#editing-vr)"><g transform="translate(-220.74996280670166, 131.26499700546265)"><path d="M14.52 0L1.21 0L15.73-79.86L41.74-79.86L60.62-24.93L70.66-79.86L84.09-79.74L69.33 0L41.62 0L24.20-52.88L14.52 0ZM136.13-20.45L136.13-20.45L136.13-20.45Q139.15-18.39 139.15-13.85L139.15-13.85L139.15-13.85Q139.15-9.32 136.85-6.41L136.85-6.41L136.85-6.41Q134.55-3.51 130.80-1.57L130.80-1.57L130.80-1.57Q123.06 2.42 114.71 2.42L114.71 2.42L114.71 2.42Q106.36 2.42 101.46 0.60L101.46 0.60L101.46 0.60Q96.56-1.21 93.29-4.60L93.29-4.60L93.29-4.60Q86.88-11.01 86.88-22.75L86.88-22.75L86.88-22.75Q86.88-41.02 96.80-52.15L96.80-52.15L96.80-52.15Q107.45-64.13 125.96-64.13L125.96-64.13L125.96-64.13Q137.46-64.13 143.14-59.29L143.14-59.29L143.14-59.29Q147.38-55.66 147.38-49.73L147.38-49.73L147.38-49.73Q147.38-28.43 110.59-28.43L110.59-28.43L110.59-28.43Q110.11-25.29 110.11-22.63L110.11-22.63L110.11-22.63Q110.11-17.06 112.59-14.94L112.59-14.94L112.59-14.94Q115.07-12.83 119.67-12.83L119.67-12.83L119.67-12.83Q124.27-12.83 129.17-14.94L129.17-14.94L129.17-14.94Q134.07-17.06 136.13-20.45ZM111.44-33.64L111.44-33.64L111.44-33.64Q120.03-33.64 124.99-38.96L124.99-38.96L124.99-38.96Q129.95-44.04 129.95-52.15L129.95-52.15L129.95-52.15Q129.95-54.93 128.93-56.45L128.93-56.45L128.93-56.45Q127.90-57.96 125.84-57.96L125.84-57.96L125.84-57.96Q123.78-57.96 122.03-57.17L122.03-57.17L122.03-57.17Q120.27-56.39 118.46-53.72L118.46-53.72L118.46-53.72Q113.98-47.67 111.44-33.64ZM241.76-20.21L241.76-20.21Q233.77-9.20 226.09-3.39L226.09-3.39L226.09-3.39Q218.41 2.42 210.48 2.42L210.48 2.42L210.48 2.42Q202.55 2.42 199.77 0.85L199.77 0.85L199.77-25.77L199.77-25.77Q192.87-7.38 180.53-0.24L180.53-0.24L180.53-0.24Q176.06 2.42 171.82 2.42L171.82 2.42L171.82 2.42Q163.71 2.42 160.20 0.85L160.20 0.85L160.20 0.85Q159.36-26.86 158.63-34.55L158.63-34.55L158.63-34.55Q157.91-42.23 157.30-46.95L157.30-46.95L157.30-46.95Q156.09-56.39 151.98-60.26L151.98-60.26L151.98-60.26Q157.18-64.13 164.44-64.13L164.44-64.13L164.44-64.13Q178.47-64.13 180.41-46.71L180.41-46.71L180.41-46.71Q180.90-42.59 180.90-38.24L180.90-38.24L180.90-38.24Q180.90-31.70 179.44-8.95L179.44-8.95L179.44-8.95Q182.35-10.29 185.43-15.06L185.43-15.06L185.43-15.06Q188.52-19.84 191.06-26.38L191.06-26.38L191.06-26.38Q196.75-41.50 196.75-54.57L196.75-54.57L196.75-54.57Q196.75-56.63 196.20-58.81L196.20-58.81L196.20-58.81Q195.66-60.98 195.05-61.59L195.05-61.59L195.05-61.59Q199.29-64.13 205.76-64.13L205.76-64.13L205.76-64.13Q212.23-64.13 215.32-59.71L215.32-59.71L215.32-59.71Q218.41-55.30 219.25-47.19L219.25-47.19L219.25-47.19Q220.22-36.91 220.22-30.73L220.22-30.73L220.22-30.73Q220.22-22.14 219.37-9.44L219.37-9.44L219.37-9.44Q225.42-13.79 230.38-28.07L230.38-28.07L230.38-28.07Q235.34-42.35 235.34-52.51L235.34-52.51L235.34-52.51Q235.34-56.99 234.62-59.65L234.62-59.65L234.62-59.65Q238.61-64.13 245.51-64.13L245.51-64.13L245.51-64.13Q249.74-64.13 252.83-61.83L252.83-61.83L252.83-61.83Q255.91-59.53 255.91-55.24L255.91-55.24L255.91-55.24Q255.91-50.94 254.64-46.34L254.64-46.34L254.64-46.34Q253.37-41.74 251.32-37.03L251.32-37.03L251.32-37.03Q247.32-27.59 241.76-20.21L241.76-20.21ZM257.97-0.60L257.97-0.60L273.22-79.86L273.22-79.86Q287.50-81.07 296.69-81.07L296.69-81.07L296.69-81.07Q305.89-81.07 311.82-80.28L311.82-80.28L311.82-80.28Q317.75-79.50 321.74-77.44L321.74-77.44L321.74-77.44Q329.73-73.57 329.73-62.92L329.73-62.92L329.73-62.92Q329.73-56.75 324.40-51.55L324.40-51.55L324.40-51.55Q319.44-46.83 314.00-45.74L314.00-45.74L314.00-45.74Q319.80-44.77 323.92-40.41L323.92-40.41L323.92-40.41Q328.27-35.82 328.27-28.68L328.27-28.68L328.27-28.68Q328.27-14.88 317.99-6.84L317.99-6.84L317.99-6.84Q307.70 1.21 287.50 1.21L287.50 1.21L287.50 1.21Q273.58 1.21 257.97-0.60ZM290.88-38.96L284.83-7.62L284.83-7.62Q285.92-7.50 286.17-7.50L286.17-7.50L287.25-7.50L287.25-7.50Q297.18-7.50 301.41-14.04L301.41-14.04L301.41-14.04Q304.56-19.12 304.56-28.43L304.56-28.43L304.56-28.43Q304.56-33.40 301.35-36.06L301.35-36.06L301.35-36.06Q298.14-38.72 290.88-38.96L290.88-38.96ZM309.28-62.80L309.28-62.80L309.28-62.80Q309.28-72.84 299.60-72.84L299.60-72.84L298.51-72.84L298.51-72.84Q298.02-72.84 297.30-72.72L297.30-72.72L292.46-47.19L293.67-47.19L293.67-47.19Q309.28-47.55 309.28-62.80ZM365.30-6.65L365.30-6.65L365.30-6.65Q361.55 2.42 349.57 2.42L349.57 2.42L349.57 2.42Q343.40 2.42 339.53-1.81L339.53-1.81L339.53-1.81Q336.26-5.57 336.26-9.32L336.26-9.32L336.26-9.32Q336.26-19.12 340.74-38.24L340.74-38.24L345.21-61.71L369.78-64.13L362.39-25.89L362.39-25.89Q360.34-16.94 360.34-13.79L360.34-13.79L360.34-13.79Q360.34-6.90 365.30-6.65ZM347.39-78.53L347.39-78.53L347.39-78.53Q347.39-83.25 351.32-85.79L351.32-85.79L351.32-85.79Q355.26-88.33 360.94-88.33L360.94-88.33L360.94-88.33Q366.63-88.33 370.08-85.79L370.08-85.79L370.08-85.79Q373.53-83.25 373.53-78.53L373.53-78.53L373.53-78.53Q373.53-73.81 369.72-71.39L369.72-71.39L369.72-71.39Q365.90-68.97 360.22-68.97L360.22-68.97L360.22-68.97Q354.53-68.97 350.96-71.39L350.96-71.39L350.96-71.39Q347.39-73.81 347.39-78.53ZM424.59-20.45L424.59-20.45L424.59-20.45Q427.61-18.39 427.61-13.85L427.61-13.85L427.61-13.85Q427.61-9.32 425.31-6.41L425.31-6.41L425.31-6.41Q423.02-3.51 419.26-1.57L419.26-1.57L419.26-1.57Q411.52 2.42 403.17 2.42L403.17 2.42L403.17 2.42Q394.82 2.42 389.92 0.60L389.92 0.60L389.92 0.60Q385.02-1.21 381.75-4.60L381.75-4.60L381.75-4.60Q375.34-11.01 375.34-22.75L375.34-22.75L375.34-22.75Q375.34-41.02 385.26-52.15L385.26-52.15L385.26-52.15Q395.91-64.13 414.42-64.13L414.42-64.13L414.42-64.13Q425.92-64.13 431.61-59.29L431.61-59.29L431.61-59.29Q435.84-55.66 435.84-49.73L435.84-49.73L435.84-49.73Q435.84-28.43 399.06-28.43L399.06-28.43L399.06-28.43Q398.57-25.29 398.57-22.63L398.57-22.63L398.57-22.63Q398.57-17.06 401.05-14.94L401.05-14.94L401.05-14.94Q403.53-12.83 408.13-12.83L408.13-12.83L408.13-12.83Q412.73-12.83 417.63-14.94L417.63-14.94L417.63-14.94Q422.53-17.06 424.59-20.45ZM399.90-33.64L399.90-33.64L399.90-33.64Q408.50-33.64 413.46-38.96L413.46-38.96L413.46-38.96Q418.42-44.04 418.42-52.15L418.42-52.15L418.42-52.15Q418.42-54.93 417.39-56.45L417.39-56.45L417.39-56.45Q416.36-57.96 414.30-57.96L414.30-57.96L414.30-57.96Q412.25-57.96 410.49-57.17L410.49-57.17L410.49-57.17Q408.74-56.39 406.92-53.72L406.92-53.72L406.92-53.72Q402.45-47.67 399.90-33.64ZM528.04-25.05L528.04-25.05L528.04-25.05Q531.19-22.75 531.19-17.85L531.19-17.85L531.19-17.85Q531.19-12.95 529.07-9.50L529.07-9.50L529.07-9.50Q526.95-6.05 522.84-3.39L522.84-3.39L522.84-3.39Q514.01 2.30 498.58 2.30L498.58 2.30L498.58 2.30Q483.15 2.30 474.74-5.75L474.74-5.75L474.74-5.75Q466.33-13.79 466.33-28.07L466.33-28.07L466.33-28.07Q466.33-48.28 476.86-63.65L476.86-63.65L476.86-63.65Q484.85-75.02 499.13-79.86L499.13-79.86L499.13-79.86Q506.51-82.28 513.77-82.28L513.77-82.28L513.77-82.28Q521.03-82.28 525.50-81.31L525.50-81.31L525.50-81.31Q529.98-80.34 533.37-78.41L533.37-78.41L533.37-78.41Q540.75-74.17 540.75-67.40L540.75-67.40L540.75-67.40Q540.75-61.23 534.94-56.63L534.94-56.63L534.94-56.63Q529.62-52.51 525.26-52.51L525.26-52.51L525.26-52.51Q520.90-52.51 519.09-53.12L519.09-53.12L519.09-53.12Q519.57-57.48 519.57-60.32L519.57-60.32L519.57-60.32Q519.57-63.16 519.45-65.22L519.45-65.22L519.45-65.22Q519.33-67.28 518.73-69.21L518.73-69.21L518.73-69.21Q517.52-73.69 513.83-73.69L513.83-73.69L513.83-73.69Q510.14-73.69 506.45-70.24L506.45-70.24L506.45-70.24Q502.75-66.79 499.61-60.98L499.61-60.98L499.61-60.98Q492.47-47.80 492.47-32.19L492.47-32.19L492.47-32.19Q492.47-24.68 496.70-20.39L496.70-20.39L496.70-20.39Q500.94-16.09 510.01-16.09L510.01-16.09L510.01-16.09Q516.79-16.09 523.20-20.57L523.20-20.57L523.20-20.57Q525.99-22.51 528.04-25.05ZM567.61 2.42L567.61 2.42L567.61 2.42Q540.99 2.42 540.99-22.63L540.99-22.63L540.99-22.63Q540.99-40.41 550.79-51.91L550.79-51.91L550.79-51.91Q561.20-64.13 579.23-64.13L579.23-64.13L579.23-64.13Q592.29-64.13 598.95-58.08L598.95-58.08L598.95-58.08Q605.60-52.03 605.60-39.32L605.60-39.32L605.60-39.32Q605.60-19.96 595.20-8.71L595.20-8.71L595.20-8.71Q585.03 2.42 567.61 2.42ZM570.76-50.21L570.76-50.21L570.76-50.21Q569.30-46.95 568.16-42.05L568.16-42.05L568.16-42.05Q567.01-37.15 565.55-29.40L565.55-29.40L565.55-29.40Q564.10-21.66 564.10-12.10L564.10-12.10L564.10-12.10Q564.10-8.95 565.13-6.90L565.13-6.90L565.13-6.90Q566.16-4.84 568.94-4.84L568.94-4.84L568.94-4.84Q571.72-4.84 573.48-6.17L573.48-6.17L573.48-6.17Q575.23-7.50 576.56-10.65L576.56-10.65L576.56-10.65Q578.98-16.21 580.92-26.56L580.92-26.56L580.92-26.56Q582.86-36.91 583.04-41.38L583.04-41.38L583.04-41.38Q583.22-45.86 583.22-49.19L583.22-49.19L583.22-49.19Q583.22-52.51 582.25-54.69L582.25-54.69L582.25-54.69Q581.28-56.87 578.56-56.87L578.56-56.87L578.56-56.87Q575.84-56.87 574.02-55.18L574.02-55.18L574.02-55.18Q572.21-53.48 570.76-50.21ZM639.12 2.42L639.12 2.42L639.12 2.42Q612.50 2.42 612.50-22.63L612.50-22.63L612.50-22.63Q612.50-40.41 622.30-51.91L622.30-51.91L622.30-51.91Q632.71-64.13 650.74-64.13L650.74-64.13L650.74-64.13Q663.81-64.13 670.46-58.08L670.46-58.08L670.46-58.08Q677.12-52.03 677.12-39.32L677.12-39.32L677.12-39.32Q677.12-19.96 666.71-8.71L666.71-8.71L666.71-8.71Q656.55 2.42 639.12 2.42ZM642.27-50.21L642.27-50.21L642.27-50.21Q640.82-46.95 639.67-42.05L639.67-42.05L639.67-42.05Q638.52-37.15 637.06-29.40L637.06-29.40L637.06-29.40Q635.61-21.66 635.61-12.10L635.61-12.10L635.61-12.10Q635.61-8.95 636.64-6.90L636.64-6.90L636.64-6.90Q637.67-4.84 640.45-4.84L640.45-4.84L640.45-4.84Q643.24-4.84 644.99-6.17L644.99-6.17L644.99-6.17Q646.74-7.50 648.08-10.65L648.08-10.65L648.08-10.65Q650.50-16.21 652.43-26.56L652.43-26.56L652.43-26.56Q654.37-36.91 654.55-41.38L654.55-41.38L654.55-41.38Q654.73-45.86 654.73-49.19L654.73-49.19L654.73-49.19Q654.73-52.51 653.76-54.69L653.76-54.69L653.76-54.69Q652.79-56.87 650.07-56.87L650.07-56.87L650.07-56.87Q647.35-56.87 645.53-55.18L645.53-55.18L645.53-55.18Q643.72-53.48 642.27-50.21ZM715.47-57.35L715.47-57.35L715.47-57.35Q722.01-64.13 735.80-64.13L735.80-64.13L735.80-64.13Q743.42-64.13 747.60-60.08L747.60-60.08L747.60-60.08Q751.77-56.02 751.77-48.58L751.77-48.58L751.77-48.58Q751.77-41.14 747.60-35.88L747.60-35.88L747.60-35.88Q743.42-30.61 735.68-28.43L735.68-28.43L735.68-28.43Q736.28-26.02 737.13-23.47L737.13-23.47L738.83-18.63L738.83-18.63Q741.12-12.46 742.94-10.29L742.94-10.29L742.94-10.29Q744.75-8.11 747.17-7.38L747.17-7.38L747.17-7.38Q745.84-2.42 741.00 0.24L741.00 0.24L741.00 0.24Q737.13 2.42 731.81 2.42L731.81 2.42L731.81 2.42Q716.20 2.42 714.14-21.66L714.14-21.66L714.14-21.66Q713.78-25.05 713.78-28.43L713.78-28.43L713.78-28.43Q719.83-30.13 724.06-35.82L724.06-35.82L724.06-35.82Q728.30-41.50 728.30-48.16L728.30-48.16L728.30-48.16Q728.30-54.81 723.58-54.81L723.58-54.81L723.58-54.81Q720.19-54.81 717.53-51.06L717.53-51.06L717.53-51.06Q714.87-47.31 713.66-40.90L713.66-40.90L705.67 0L681.23 2.42L698.17-84.70L722.49-87.12L719.71-72.72L719.71-72.72Q717.89-62.56 715.47-57.35ZM786.38-6.65L786.38-6.65L786.38-6.65Q782.63 2.42 770.65 2.42L770.65 2.42L770.65 2.42Q764.48 2.42 760.61-1.81L760.61-1.81L760.61-1.81Q757.34-5.57 757.34-9.32L757.34-9.32L757.34-9.32Q757.34-19.12 761.82-38.24L761.82-38.24L766.29-61.71L790.86-64.13L783.47-25.89L783.47-25.89Q781.42-16.94 781.42-13.79L781.42-13.79L781.42-13.79Q781.42-6.90 786.38-6.65ZM768.47-78.53L768.47-78.53L768.47-78.53Q768.47-83.25 772.40-85.79L772.40-85.79L772.40-85.79Q776.34-88.33 782.02-88.33L782.02-88.33L782.02-88.33Q787.71-88.33 791.16-85.79L791.16-85.79L791.16-85.79Q794.61-83.25 794.61-78.53L794.61-78.53L794.61-78.53Q794.61-73.81 790.80-71.39L790.80-71.39L790.80-71.39Q786.98-68.97 781.30-68.97L781.30-68.97L781.30-68.97Q775.61-68.97 772.04-71.39L772.04-71.39L772.04-71.39Q768.47-73.81 768.47-78.53ZM847.85 2.42L847.85 2.42L847.85 2.42Q833.21 2.42 833.21-8.95L833.21-8.95L833.21-8.95Q833.33-12.10 834.29-17.42L834.29-17.42L836.47-28.56L836.47-28.56Q839.74-44.29 839.74-47.80L839.74-47.80L839.74-47.80Q839.74-54.81 835.63-54.81L835.63-54.81L835.63-54.81Q828.73-54.81 825.10-36.78L825.10-36.78L817.96 0L793.64 2.42L806.22-61.83L826.07-64.13L824.13-52.27L824.13-52.27Q829.82-64.13 847.24-64.13L847.24-64.13L847.24-64.13Q855.71-64.13 859.28-60.56L859.28-60.56L859.28-60.56Q862.85-56.99 862.85-49.00L862.85-49.00L862.85-49.00Q862.85-41.50 858.98-23.96L858.98-23.96L858.98-23.96Q857.16-16.09 857.16-13.13L857.16-13.13L857.16-13.13Q857.16-10.16 858.80-8.47L858.80-8.47L858.80-8.47Q860.43-6.78 862.85-6.53L862.85-6.53L862.85-6.53Q861.64-2.42 857.47 0L857.47 0L857.47 0Q853.29 2.42 847.85 2.42ZM881.12-50.58L881.12-50.58L881.12-50.58Q885.24-56.39 891.47-60.26L891.47-60.26L891.47-60.26Q897.70-64.13 905.32-64.13L905.32-64.13L905.32-64.13Q912.94-64.13 916.57-61.71L916.57-61.71L940.29-64.13L932.06-17.67L932.06-17.67Q927.83 6.05 918.87 15.37L918.87 15.37L918.87 15.37Q910.28 24.20 893.58 24.20L893.58 24.20L893.58 24.20Q880.88 24.20 873.62 20.21L873.62 20.21L873.62 20.21Q866.36 16.21 866.36 9.56L866.36 9.56L866.36 9.56Q866.36 4.60 870.11 1.75L870.11 1.75L870.11 1.75Q873.86-1.09 879.67-1.09L879.67-1.09L879.67-1.09Q884.75-1.09 888.62 1.21L888.62 1.21L888.62 1.21Q890.92 2.42 892.01 4.11L892.01 4.11L892.01 4.11Q889.23 6.53 889.23 10.53L889.23 10.53L889.23 10.53Q889.23 15.73 894.07 15.73L894.07 15.73L894.07 15.73Q902.18 15.73 906.77-3.39L906.77-3.39L906.77-3.39Q908.10-8.59 909.19-13.79L909.19-13.79L909.19-13.79Q903.75-7.14 891.41-7.14L891.41-7.14L891.41-7.14Q882.82-7.14 877.85-11.25L877.85-11.25L877.85-11.25Q872.89-15.37 872.89-25.05L872.89-25.05L872.89-25.05Q872.89-31.10 874.95-37.93L874.95-37.93L874.95-37.93Q877.01-44.77 881.12-50.58ZM896.85-24.68L896.85-24.68L896.85-24.68Q896.85-16.46 901.09-16.46L901.09-16.46L901.09-16.46Q903.99-16.46 906.77-19.60L906.77-19.60L906.77-19.60Q908.95-22.14 909.80-25.89L909.80-25.89L915.97-56.99L915.97-56.99Q915.36-57.11 914.76-57.35L914.76-57.35L914.76-57.35Q913.55-57.84 911.98-57.84L911.98-57.84L911.98-57.84Q904.60-57.84 900.24-45.74L900.24-45.74L900.24-45.74Q896.85-36.30 896.85-24.68Z" fill="#444"></path></g></g><style>text {
  font-size: 64px;
  font-family: Arial Black;
  dominant-baseline: central;
  text-anchor: middle;
}</style></svg>